%TF.GenerationSoftware,KiCad,Pcbnew,9.0.0*%
%TF.CreationDate,2025-12-10T15:51:30-08:00*%
%TF.ProjectId,cap_bank,6361705f-6261-46e6-9b2e-6b696361645f,rev?*%
%TF.SameCoordinates,Original*%
%TF.FileFunction,Soldermask,Bot*%
%TF.FilePolarity,Negative*%
%FSLAX46Y46*%
G04 Gerber Fmt 4.6, Leading zero omitted, Abs format (unit mm)*
G04 Created by KiCad (PCBNEW 9.0.0) date 2025-12-10 15:51:30*
%MOMM*%
%LPD*%
G01*
G04 APERTURE LIST*
%ADD10C,4.000000*%
%ADD11C,0.600000*%
%ADD12C,10.600000*%
%ADD13C,2.400000*%
%ADD14O,2.400000X2.400000*%
%TA.AperFunction,Profile*%
%ADD15C,0.050000*%
%TD*%
G04 APERTURE END LIST*
D10*
%TO.C,H6*%
X65000000Y-145000000D03*
%TD*%
%TO.C,H5*%
X190000000Y-145000000D03*
%TD*%
%TO.C,H4*%
X190000000Y-35000000D03*
%TD*%
%TO.C,H3*%
X65000000Y-35000000D03*
%TD*%
D11*
%TO.C,H2*%
X186500000Y-106500000D03*
X187500000Y-106500000D03*
X188500000Y-106500000D03*
X189500000Y-106500000D03*
X184500000Y-105500000D03*
X185500000Y-105500000D03*
X186500000Y-105500000D03*
X187500000Y-105500000D03*
X188500000Y-105500000D03*
X189500000Y-105500000D03*
X190500000Y-105500000D03*
X191500000Y-105500000D03*
X184500000Y-104500000D03*
X185500000Y-104500000D03*
X190500000Y-104500000D03*
X191500000Y-104500000D03*
X183500000Y-103500000D03*
X184500000Y-103500000D03*
X191500000Y-103500000D03*
X192500000Y-103500000D03*
X183500000Y-102500000D03*
X184500000Y-102500000D03*
X191500000Y-102500000D03*
X192500000Y-102500000D03*
D12*
X188000000Y-102000000D03*
D11*
X183500000Y-101500000D03*
X184500000Y-101500000D03*
X191500000Y-101500000D03*
X192500000Y-101500000D03*
X183500000Y-100500000D03*
X184500000Y-100500000D03*
X191500000Y-100500000D03*
X192500000Y-100500000D03*
X184500000Y-99500000D03*
X185500000Y-99500000D03*
X190500000Y-99500000D03*
X191500000Y-99500000D03*
X184500000Y-98500000D03*
X185500000Y-98500000D03*
X186500000Y-98500000D03*
X187500000Y-98500000D03*
X188500000Y-98500000D03*
X189500000Y-98500000D03*
X190500000Y-98500000D03*
X191500000Y-98500000D03*
X186500000Y-97500000D03*
X187500000Y-97500000D03*
X188500000Y-97500000D03*
X189500000Y-97500000D03*
X186500000Y-82500000D03*
X187500000Y-82500000D03*
X188500000Y-82500000D03*
X189500000Y-82500000D03*
X184500000Y-81500000D03*
X185500000Y-81500000D03*
X186500000Y-81500000D03*
X187500000Y-81500000D03*
X188500000Y-81500000D03*
X189500000Y-81500000D03*
X190500000Y-81500000D03*
X191500000Y-81500000D03*
X184500000Y-80500000D03*
X185500000Y-80500000D03*
X190500000Y-80500000D03*
X191500000Y-80500000D03*
X183500000Y-79500000D03*
X184500000Y-79500000D03*
X191500000Y-79500000D03*
X192500000Y-79500000D03*
X183500000Y-78500000D03*
X184500000Y-78500000D03*
X191500000Y-78500000D03*
X192500000Y-78500000D03*
D12*
X188000000Y-78000000D03*
D11*
X183500000Y-77500000D03*
X184500000Y-77500000D03*
X191500000Y-77500000D03*
X192500000Y-77500000D03*
X183500000Y-76500000D03*
X184500000Y-76500000D03*
X191500000Y-76500000D03*
X192500000Y-76500000D03*
X184500000Y-75500000D03*
X185500000Y-75500000D03*
X190500000Y-75500000D03*
X191500000Y-75500000D03*
X184500000Y-74500000D03*
X185500000Y-74500000D03*
X186500000Y-74500000D03*
X187500000Y-74500000D03*
X188500000Y-74500000D03*
X189500000Y-74500000D03*
X190500000Y-74500000D03*
X191500000Y-74500000D03*
X186500000Y-73500000D03*
X187500000Y-73500000D03*
X188500000Y-73500000D03*
X189500000Y-73500000D03*
%TD*%
%TO.C,H1*%
X65500000Y-106500000D03*
X66500000Y-106500000D03*
X67500000Y-106500000D03*
X68500000Y-106500000D03*
X63500000Y-105500000D03*
X64500000Y-105500000D03*
X65500000Y-105500000D03*
X66500000Y-105500000D03*
X67500000Y-105500000D03*
X68500000Y-105500000D03*
X69500000Y-105500000D03*
X70500000Y-105500000D03*
X63500000Y-104500000D03*
X64500000Y-104500000D03*
X69500000Y-104500000D03*
X70500000Y-104500000D03*
X62500000Y-103500000D03*
X63500000Y-103500000D03*
X70500000Y-103500000D03*
X71500000Y-103500000D03*
X62500000Y-102500000D03*
X63500000Y-102500000D03*
X70500000Y-102500000D03*
X71500000Y-102500000D03*
D12*
X67000000Y-102000000D03*
D11*
X62500000Y-101500000D03*
X63500000Y-101500000D03*
X70500000Y-101500000D03*
X71500000Y-101500000D03*
X62500000Y-100500000D03*
X63500000Y-100500000D03*
X70500000Y-100500000D03*
X71500000Y-100500000D03*
X63500000Y-99500000D03*
X64500000Y-99500000D03*
X69500000Y-99500000D03*
X70500000Y-99500000D03*
X63500000Y-98500000D03*
X64500000Y-98500000D03*
X65500000Y-98500000D03*
X66500000Y-98500000D03*
X67500000Y-98500000D03*
X68500000Y-98500000D03*
X69500000Y-98500000D03*
X70500000Y-98500000D03*
X65500000Y-97500000D03*
X66500000Y-97500000D03*
X67500000Y-97500000D03*
X68500000Y-97500000D03*
X65500000Y-82500000D03*
X66500000Y-82500000D03*
X67500000Y-82500000D03*
X68500000Y-82500000D03*
X63500000Y-81500000D03*
X64500000Y-81500000D03*
X65500000Y-81500000D03*
X66500000Y-81500000D03*
X67500000Y-81500000D03*
X68500000Y-81500000D03*
X69500000Y-81500000D03*
X70500000Y-81500000D03*
X63500000Y-80500000D03*
X64500000Y-80500000D03*
X69500000Y-80500000D03*
X70500000Y-80500000D03*
X62500000Y-79500000D03*
X63500000Y-79500000D03*
X70500000Y-79500000D03*
X71500000Y-79500000D03*
X62500000Y-78500000D03*
X63500000Y-78500000D03*
X70500000Y-78500000D03*
X71500000Y-78500000D03*
D12*
X67000000Y-78000000D03*
D11*
X62500000Y-77500000D03*
X63500000Y-77500000D03*
X70500000Y-77500000D03*
X71500000Y-77500000D03*
X62500000Y-76500000D03*
X63500000Y-76500000D03*
X70500000Y-76500000D03*
X71500000Y-76500000D03*
X63500000Y-75500000D03*
X64500000Y-75500000D03*
X69500000Y-75500000D03*
X70500000Y-75500000D03*
X63500000Y-74500000D03*
X64500000Y-74500000D03*
X65500000Y-74500000D03*
X66500000Y-74500000D03*
X67500000Y-74500000D03*
X68500000Y-74500000D03*
X69500000Y-74500000D03*
X70500000Y-74500000D03*
X65500000Y-73500000D03*
X66500000Y-73500000D03*
X67500000Y-73500000D03*
X68500000Y-73500000D03*
%TD*%
D13*
%TO.C,GD1*%
X178500000Y-66500000D03*
D14*
X178500000Y-53500000D03*
%TD*%
D13*
%TO.C,C48*%
X167500000Y-60250000D03*
X167500000Y-37750000D03*
%TD*%
%TO.C,C47*%
X160000000Y-60250000D03*
X160000000Y-37750000D03*
%TD*%
%TO.C,C46*%
X152500000Y-60250000D03*
X152500000Y-37750000D03*
%TD*%
%TO.C,C45*%
X145000000Y-60250000D03*
X145000000Y-37750000D03*
%TD*%
%TO.C,C44*%
X137500000Y-60250000D03*
X137500000Y-37750000D03*
%TD*%
%TO.C,C43*%
X130000000Y-60250000D03*
X130000000Y-37750000D03*
%TD*%
%TO.C,C42*%
X122500000Y-60250000D03*
X122500000Y-37750000D03*
%TD*%
%TO.C,C41*%
X115000000Y-60250000D03*
X115000000Y-37750000D03*
%TD*%
%TO.C,C40*%
X107500000Y-60250000D03*
X107500000Y-37750000D03*
%TD*%
%TO.C,C39*%
X100000000Y-60250000D03*
X100000000Y-37750000D03*
%TD*%
%TO.C,C38*%
X92500000Y-60250000D03*
X92500000Y-37750000D03*
%TD*%
%TO.C,C37*%
X85000000Y-60250000D03*
X85000000Y-37750000D03*
%TD*%
%TO.C,C36*%
X167500000Y-87250000D03*
X167500000Y-64750000D03*
%TD*%
%TO.C,C35*%
X160000000Y-87250000D03*
X160000000Y-64750000D03*
%TD*%
%TO.C,C34*%
X152500000Y-87250000D03*
X152500000Y-64750000D03*
%TD*%
%TO.C,C33*%
X145000000Y-87250000D03*
X145000000Y-64750000D03*
%TD*%
%TO.C,C32*%
X137500000Y-87250000D03*
X137500000Y-64750000D03*
%TD*%
%TO.C,C31*%
X130000000Y-87250000D03*
X130000000Y-64750000D03*
%TD*%
%TO.C,C30*%
X122500000Y-87250000D03*
X122500000Y-64750000D03*
%TD*%
%TO.C,C29*%
X115000000Y-87250000D03*
X115000000Y-64750000D03*
%TD*%
%TO.C,C28*%
X107500000Y-87250000D03*
X107500000Y-64750000D03*
%TD*%
%TO.C,C27*%
X100000000Y-87250000D03*
X100000000Y-64750000D03*
%TD*%
%TO.C,C26*%
X92500000Y-87250000D03*
X92500000Y-64750000D03*
%TD*%
%TO.C,C25*%
X85000000Y-87250000D03*
X85000000Y-64750000D03*
%TD*%
%TO.C,C24*%
X167500000Y-115250000D03*
X167500000Y-92750000D03*
%TD*%
%TO.C,C23*%
X160000000Y-115250000D03*
X160000000Y-92750000D03*
%TD*%
%TO.C,C22*%
X152500000Y-115250000D03*
X152500000Y-92750000D03*
%TD*%
%TO.C,C21*%
X145000000Y-115250000D03*
X145000000Y-92750000D03*
%TD*%
%TO.C,C20*%
X137500000Y-115250000D03*
X137500000Y-92750000D03*
%TD*%
%TO.C,C19*%
X130000000Y-92750000D03*
X130000000Y-115250000D03*
%TD*%
%TO.C,C18*%
X122500000Y-115250000D03*
X122500000Y-92750000D03*
%TD*%
%TO.C,C17*%
X115000000Y-115250000D03*
X115000000Y-92750000D03*
%TD*%
%TO.C,C16*%
X107500000Y-115250000D03*
X107500000Y-92750000D03*
%TD*%
%TO.C,C15*%
X100000000Y-115250000D03*
X100000000Y-92750000D03*
%TD*%
%TO.C,C14*%
X92500000Y-115250000D03*
X92500000Y-92750000D03*
%TD*%
%TO.C,C13*%
X85000000Y-115250000D03*
X85000000Y-92750000D03*
%TD*%
%TO.C,C12*%
X167500000Y-142250000D03*
X167500000Y-119750000D03*
%TD*%
%TO.C,C11*%
X160000000Y-142250000D03*
X160000000Y-119750000D03*
%TD*%
%TO.C,C10*%
X152500000Y-142250000D03*
X152500000Y-119750000D03*
%TD*%
%TO.C,C9*%
X145000000Y-142250000D03*
X145000000Y-119750000D03*
%TD*%
%TO.C,C8*%
X137500000Y-142250000D03*
X137500000Y-119750000D03*
%TD*%
%TO.C,C7*%
X130000000Y-142250000D03*
X130000000Y-119750000D03*
%TD*%
%TO.C,C6*%
X122500000Y-142250000D03*
X122500000Y-119750000D03*
%TD*%
%TO.C,C5*%
X115000000Y-142250000D03*
X115000000Y-119750000D03*
%TD*%
%TO.C,C4*%
X107500000Y-142250000D03*
X107500000Y-119750000D03*
%TD*%
%TO.C,C3*%
X100000000Y-142250000D03*
X100000000Y-119750000D03*
%TD*%
%TO.C,C2*%
X92500000Y-142250000D03*
X92500000Y-119750000D03*
%TD*%
%TO.C,C1*%
X85000000Y-142250000D03*
X85000000Y-119750000D03*
%TD*%
%TO.C,R1*%
X187000000Y-43840000D03*
D14*
X187000000Y-64160000D03*
%TD*%
G36*
X192943039Y-87019685D02*
G01*
X192988794Y-87072489D01*
X193000000Y-87124000D01*
X193000000Y-92876000D01*
X192980315Y-92943039D01*
X192927511Y-92988794D01*
X192876000Y-93000000D01*
X82124000Y-93000000D01*
X82056961Y-92980315D01*
X82011206Y-92927511D01*
X82000000Y-92876000D01*
X82000000Y-87124000D01*
X82019685Y-87056961D01*
X82072489Y-87011206D01*
X82124000Y-87000000D01*
X192876000Y-87000000D01*
X192943039Y-87019685D01*
G37*
G36*
X171943039Y-34019685D02*
G01*
X171988794Y-34072489D01*
X172000000Y-34124000D01*
X172000000Y-38876000D01*
X171980315Y-38943039D01*
X171927511Y-38988794D01*
X171876000Y-39000000D01*
X81999999Y-39000000D01*
X70000000Y-50999999D01*
X70000000Y-70876000D01*
X69980315Y-70943039D01*
X69927511Y-70988794D01*
X69876000Y-71000000D01*
X65124000Y-71000000D01*
X65056961Y-70980315D01*
X65011206Y-70927511D01*
X65000000Y-70876000D01*
X65000000Y-48051362D01*
X65019685Y-47984323D01*
X65036319Y-47963681D01*
X78963681Y-34036319D01*
X79025004Y-34002834D01*
X79051362Y-34000000D01*
X171876000Y-34000000D01*
X171943039Y-34019685D01*
G37*
G36*
X69943039Y-109019685D02*
G01*
X69988794Y-109072489D01*
X70000000Y-109124000D01*
X70000000Y-129000000D01*
X82000000Y-141000000D01*
X171876000Y-141000000D01*
X171943039Y-141019685D01*
X171988794Y-141072489D01*
X172000000Y-141124000D01*
X172000000Y-145876000D01*
X171980315Y-145943039D01*
X171927511Y-145988794D01*
X171876000Y-146000000D01*
X79051362Y-146000000D01*
X78984323Y-145980315D01*
X78963681Y-145963681D01*
X65036319Y-132036319D01*
X65002834Y-131974996D01*
X65000000Y-131948638D01*
X65000000Y-109124000D01*
X65019685Y-109056961D01*
X65072489Y-109011206D01*
X65124000Y-109000000D01*
X69876000Y-109000000D01*
X69943039Y-109019685D01*
G37*
D15*
X60000000Y-30000000D02*
X195000000Y-30000000D01*
X195000000Y-150000000D01*
X60000000Y-150000000D01*
X60000000Y-30000000D01*
M02*
