M48
; DRILL file {KiCad 9.0.0} date 2025-12-10T15:51:27-0800
; FORMAT={-:-/ absolute / metric / decimal}
; #@! TF.CreationDate,2025-12-10T15:51:27-08:00
; #@! TF.GenerationSoftware,Kicad,Pcbnew,9.0.0
; #@! TF.FileFunction,Plated,1,2,PTH
FMAT,2
METRIC
; #@! TA.AperFunction,Plated,PTH,ViaDrill
T1C0.300
; #@! TA.AperFunction,Plated,PTH,ComponentDrill
T2C0.300
; #@! TA.AperFunction,Plated,PTH,ComponentDrill
T3C1.200
; #@! TA.AperFunction,Plated,PTH,ComponentDrill
T4C5.300
%
G90
G05
T1
X83.5Y-40.0
X83.5Y-41.0
X83.5Y-42.0
X83.5Y-82.5
X83.5Y-83.5
X83.5Y-84.5
X83.5Y-95.5
X83.5Y-96.5
X83.5Y-97.5
X83.5Y-138.0
X83.5Y-139.0
X83.5Y-140.0
X84.5Y-40.0
X84.5Y-41.0
X84.5Y-42.0
X84.5Y-82.5
X84.5Y-83.5
X84.5Y-84.5
X84.5Y-95.5
X84.5Y-96.5
X84.5Y-97.5
X84.5Y-138.0
X84.5Y-139.0
X84.5Y-140.0
X85.5Y-40.0
X85.5Y-41.0
X85.5Y-42.0
X85.5Y-82.5
X85.5Y-83.5
X85.5Y-84.5
X85.5Y-95.5
X85.5Y-96.5
X85.5Y-97.5
X85.5Y-138.0
X85.5Y-139.0
X85.5Y-140.0
X86.5Y-40.0
X86.5Y-41.0
X86.5Y-42.0
X86.5Y-82.5
X86.5Y-83.5
X86.5Y-84.5
X86.5Y-95.5
X86.5Y-96.5
X86.5Y-97.5
X86.5Y-138.0
X86.5Y-139.0
X86.5Y-140.0
X91.0Y-40.0
X91.0Y-41.0
X91.0Y-42.0
X91.0Y-82.5
X91.0Y-83.5
X91.0Y-84.5
X91.0Y-95.5
X91.0Y-96.5
X91.0Y-97.5
X91.0Y-138.0
X91.0Y-139.0
X91.0Y-140.0
X92.0Y-40.0
X92.0Y-41.0
X92.0Y-42.0
X92.0Y-82.5
X92.0Y-83.5
X92.0Y-84.5
X92.0Y-95.5
X92.0Y-96.5
X92.0Y-97.5
X92.0Y-138.0
X92.0Y-139.0
X92.0Y-140.0
X93.0Y-40.0
X93.0Y-41.0
X93.0Y-42.0
X93.0Y-82.5
X93.0Y-83.5
X93.0Y-84.5
X93.0Y-95.5
X93.0Y-96.5
X93.0Y-97.5
X93.0Y-138.0
X93.0Y-139.0
X93.0Y-140.0
X94.0Y-40.0
X94.0Y-41.0
X94.0Y-42.0
X94.0Y-82.5
X94.0Y-83.5
X94.0Y-84.5
X94.0Y-95.5
X94.0Y-96.5
X94.0Y-97.5
X94.0Y-138.0
X94.0Y-139.0
X94.0Y-140.0
X98.5Y-40.0
X98.5Y-41.0
X98.5Y-42.0
X98.5Y-82.5
X98.5Y-83.5
X98.5Y-84.5
X98.5Y-95.5
X98.5Y-96.5
X98.5Y-97.5
X98.5Y-138.0
X98.5Y-139.0
X98.5Y-140.0
X99.5Y-40.0
X99.5Y-41.0
X99.5Y-42.0
X99.5Y-82.5
X99.5Y-83.5
X99.5Y-84.5
X99.5Y-95.5
X99.5Y-96.5
X99.5Y-97.5
X99.5Y-138.0
X99.5Y-139.0
X99.5Y-140.0
X100.5Y-40.0
X100.5Y-41.0
X100.5Y-42.0
X100.5Y-82.5
X100.5Y-83.5
X100.5Y-84.5
X100.5Y-95.5
X100.5Y-96.5
X100.5Y-97.5
X100.5Y-138.0
X100.5Y-139.0
X100.5Y-140.0
X101.5Y-40.0
X101.5Y-41.0
X101.5Y-42.0
X101.5Y-82.5
X101.5Y-83.5
X101.5Y-84.5
X101.5Y-95.5
X101.5Y-96.5
X101.5Y-97.5
X101.5Y-138.0
X101.5Y-139.0
X101.5Y-140.0
X106.0Y-40.0
X106.0Y-41.0
X106.0Y-42.0
X106.0Y-82.5
X106.0Y-83.5
X106.0Y-84.5
X106.0Y-95.5
X106.0Y-96.5
X106.0Y-97.5
X106.0Y-138.0
X106.0Y-139.0
X106.0Y-140.0
X107.0Y-40.0
X107.0Y-41.0
X107.0Y-42.0
X107.0Y-82.5
X107.0Y-83.5
X107.0Y-84.5
X107.0Y-95.5
X107.0Y-96.5
X107.0Y-97.5
X107.0Y-138.0
X107.0Y-139.0
X107.0Y-140.0
X108.0Y-40.0
X108.0Y-41.0
X108.0Y-42.0
X108.0Y-82.5
X108.0Y-83.5
X108.0Y-84.5
X108.0Y-95.5
X108.0Y-96.5
X108.0Y-97.5
X108.0Y-138.0
X108.0Y-139.0
X108.0Y-140.0
X109.0Y-40.0
X109.0Y-41.0
X109.0Y-42.0
X109.0Y-82.5
X109.0Y-83.5
X109.0Y-84.5
X109.0Y-95.5
X109.0Y-96.5
X109.0Y-97.5
X109.0Y-138.0
X109.0Y-139.0
X109.0Y-140.0
X113.5Y-40.0
X113.5Y-41.0
X113.5Y-42.0
X113.5Y-82.5
X113.5Y-83.5
X113.5Y-84.5
X113.5Y-95.5
X113.5Y-96.5
X113.5Y-97.5
X113.5Y-138.0
X113.5Y-139.0
X113.5Y-140.0
X114.5Y-40.0
X114.5Y-41.0
X114.5Y-42.0
X114.5Y-82.5
X114.5Y-83.5
X114.5Y-84.5
X114.5Y-95.5
X114.5Y-96.5
X114.5Y-97.5
X114.5Y-138.0
X114.5Y-139.0
X114.5Y-140.0
X115.5Y-40.0
X115.5Y-41.0
X115.5Y-42.0
X115.5Y-82.5
X115.5Y-83.5
X115.5Y-84.5
X115.5Y-95.5
X115.5Y-96.5
X115.5Y-97.5
X115.5Y-138.0
X115.5Y-139.0
X115.5Y-140.0
X116.5Y-40.0
X116.5Y-41.0
X116.5Y-42.0
X116.5Y-82.5
X116.5Y-83.5
X116.5Y-84.5
X116.5Y-95.5
X116.5Y-96.5
X116.5Y-97.5
X116.5Y-138.0
X116.5Y-139.0
X116.5Y-140.0
X121.0Y-40.0
X121.0Y-41.0
X121.0Y-42.0
X121.0Y-82.5
X121.0Y-83.5
X121.0Y-84.5
X121.0Y-95.5
X121.0Y-96.5
X121.0Y-97.5
X121.0Y-138.0
X121.0Y-139.0
X121.0Y-140.0
X122.0Y-40.0
X122.0Y-41.0
X122.0Y-42.0
X122.0Y-82.5
X122.0Y-83.5
X122.0Y-84.5
X122.0Y-95.5
X122.0Y-96.5
X122.0Y-97.5
X122.0Y-138.0
X122.0Y-139.0
X122.0Y-140.0
X123.0Y-40.0
X123.0Y-41.0
X123.0Y-42.0
X123.0Y-82.5
X123.0Y-83.5
X123.0Y-84.5
X123.0Y-95.5
X123.0Y-96.5
X123.0Y-97.5
X123.0Y-138.0
X123.0Y-139.0
X123.0Y-140.0
X124.0Y-40.0
X124.0Y-41.0
X124.0Y-42.0
X124.0Y-82.5
X124.0Y-83.5
X124.0Y-84.5
X124.0Y-95.5
X124.0Y-96.5
X124.0Y-97.5
X124.0Y-138.0
X124.0Y-139.0
X124.0Y-140.0
X128.5Y-40.0
X128.5Y-41.0
X128.5Y-42.0
X128.5Y-82.5
X128.5Y-83.5
X128.5Y-84.5
X128.5Y-95.5
X128.5Y-96.5
X128.5Y-97.5
X128.5Y-138.0
X128.5Y-139.0
X128.5Y-140.0
X129.5Y-40.0
X129.5Y-41.0
X129.5Y-42.0
X129.5Y-82.5
X129.5Y-83.5
X129.5Y-84.5
X129.5Y-95.5
X129.5Y-96.5
X129.5Y-97.5
X129.5Y-138.0
X129.5Y-139.0
X129.5Y-140.0
X130.5Y-40.0
X130.5Y-41.0
X130.5Y-42.0
X130.5Y-82.5
X130.5Y-83.5
X130.5Y-84.5
X130.5Y-95.5
X130.5Y-96.5
X130.5Y-97.5
X130.5Y-138.0
X130.5Y-139.0
X130.5Y-140.0
X131.5Y-40.0
X131.5Y-41.0
X131.5Y-42.0
X131.5Y-82.5
X131.5Y-83.5
X131.5Y-84.5
X131.5Y-95.5
X131.5Y-96.5
X131.5Y-97.5
X131.5Y-138.0
X131.5Y-139.0
X131.5Y-140.0
X136.0Y-40.0
X136.0Y-41.0
X136.0Y-42.0
X136.0Y-82.5
X136.0Y-83.5
X136.0Y-84.5
X136.0Y-95.5
X136.0Y-96.5
X136.0Y-97.5
X136.0Y-138.0
X136.0Y-139.0
X136.0Y-140.0
X137.0Y-40.0
X137.0Y-41.0
X137.0Y-42.0
X137.0Y-82.5
X137.0Y-83.5
X137.0Y-84.5
X137.0Y-95.5
X137.0Y-96.5
X137.0Y-97.5
X137.0Y-138.0
X137.0Y-139.0
X137.0Y-140.0
X138.0Y-40.0
X138.0Y-41.0
X138.0Y-42.0
X138.0Y-82.5
X138.0Y-83.5
X138.0Y-84.5
X138.0Y-95.5
X138.0Y-96.5
X138.0Y-97.5
X138.0Y-138.0
X138.0Y-139.0
X138.0Y-140.0
X139.0Y-40.0
X139.0Y-41.0
X139.0Y-42.0
X139.0Y-82.5
X139.0Y-83.5
X139.0Y-84.5
X139.0Y-95.5
X139.0Y-96.5
X139.0Y-97.5
X139.0Y-138.0
X139.0Y-139.0
X139.0Y-140.0
X143.5Y-40.0
X143.5Y-41.0
X143.5Y-42.0
X143.5Y-82.5
X143.5Y-83.5
X143.5Y-84.5
X143.5Y-95.5
X143.5Y-96.5
X143.5Y-97.5
X143.5Y-138.0
X143.5Y-139.0
X143.5Y-140.0
X144.5Y-40.0
X144.5Y-41.0
X144.5Y-42.0
X144.5Y-82.5
X144.5Y-83.5
X144.5Y-84.5
X144.5Y-95.5
X144.5Y-96.5
X144.5Y-97.5
X144.5Y-138.0
X144.5Y-139.0
X144.5Y-140.0
X145.5Y-40.0
X145.5Y-41.0
X145.5Y-42.0
X145.5Y-82.5
X145.5Y-83.5
X145.5Y-84.5
X145.5Y-95.5
X145.5Y-96.5
X145.5Y-97.5
X145.5Y-138.0
X145.5Y-139.0
X145.5Y-140.0
X146.5Y-40.0
X146.5Y-41.0
X146.5Y-42.0
X146.5Y-82.5
X146.5Y-83.5
X146.5Y-84.5
X146.5Y-95.5
X146.5Y-96.5
X146.5Y-97.5
X146.5Y-138.0
X146.5Y-139.0
X146.5Y-140.0
X151.0Y-40.0
X151.0Y-41.0
X151.0Y-42.0
X151.0Y-82.5
X151.0Y-83.5
X151.0Y-84.5
X151.0Y-95.5
X151.0Y-96.5
X151.0Y-97.5
X151.0Y-138.0
X151.0Y-139.0
X151.0Y-140.0
X152.0Y-40.0
X152.0Y-41.0
X152.0Y-42.0
X152.0Y-82.5
X152.0Y-83.5
X152.0Y-84.5
X152.0Y-95.5
X152.0Y-96.5
X152.0Y-97.5
X152.0Y-138.0
X152.0Y-139.0
X152.0Y-140.0
X153.0Y-40.0
X153.0Y-41.0
X153.0Y-42.0
X153.0Y-82.5
X153.0Y-83.5
X153.0Y-84.5
X153.0Y-95.5
X153.0Y-96.5
X153.0Y-97.5
X153.0Y-138.0
X153.0Y-139.0
X153.0Y-140.0
X154.0Y-40.0
X154.0Y-41.0
X154.0Y-42.0
X154.0Y-82.5
X154.0Y-83.5
X154.0Y-84.5
X154.0Y-95.5
X154.0Y-96.5
X154.0Y-97.5
X154.0Y-138.0
X154.0Y-139.0
X154.0Y-140.0
X158.5Y-40.0
X158.5Y-41.0
X158.5Y-42.0
X158.5Y-82.5
X158.5Y-83.5
X158.5Y-84.5
X158.5Y-95.5
X158.5Y-96.5
X158.5Y-97.5
X158.5Y-138.0
X158.5Y-139.0
X158.5Y-140.0
X159.5Y-40.0
X159.5Y-41.0
X159.5Y-42.0
X159.5Y-82.5
X159.5Y-83.5
X159.5Y-84.5
X159.5Y-95.5
X159.5Y-96.5
X159.5Y-97.5
X159.5Y-138.0
X159.5Y-139.0
X159.5Y-140.0
X160.5Y-40.0
X160.5Y-41.0
X160.5Y-42.0
X160.5Y-82.5
X160.5Y-83.5
X160.5Y-84.5
X160.5Y-95.5
X160.5Y-96.5
X160.5Y-97.5
X160.5Y-138.0
X160.5Y-139.0
X160.5Y-140.0
X161.5Y-40.0
X161.5Y-41.0
X161.5Y-42.0
X161.5Y-82.5
X161.5Y-83.5
X161.5Y-84.5
X161.5Y-95.5
X161.5Y-96.5
X161.5Y-97.5
X161.5Y-138.0
X161.5Y-139.0
X161.5Y-140.0
X166.0Y-40.0
X166.0Y-41.0
X166.0Y-42.0
X166.0Y-82.5
X166.0Y-83.5
X166.0Y-84.5
X166.0Y-95.5
X166.0Y-96.5
X166.0Y-97.5
X166.0Y-138.0
X166.0Y-139.0
X166.0Y-140.0
X167.0Y-40.0
X167.0Y-41.0
X167.0Y-42.0
X167.0Y-82.5
X167.0Y-83.5
X167.0Y-84.5
X167.0Y-95.5
X167.0Y-96.5
X167.0Y-97.5
X167.0Y-138.0
X167.0Y-139.0
X167.0Y-140.0
X168.0Y-40.0
X168.0Y-41.0
X168.0Y-42.0
X168.0Y-82.5
X168.0Y-83.5
X168.0Y-84.5
X168.0Y-95.5
X168.0Y-96.5
X168.0Y-97.5
X168.0Y-138.0
X168.0Y-139.0
X168.0Y-140.0
X169.0Y-40.0
X169.0Y-41.0
X169.0Y-42.0
X169.0Y-82.5
X169.0Y-83.5
X169.0Y-84.5
X169.0Y-95.5
X169.0Y-96.5
X169.0Y-97.5
X169.0Y-138.0
X169.0Y-139.0
X169.0Y-140.0
T2
X62.5Y-76.5
X62.5Y-77.5
X62.5Y-78.5
X62.5Y-79.5
X62.5Y-100.5
X62.5Y-101.5
X62.5Y-102.5
X62.5Y-103.5
X63.5Y-74.5
X63.5Y-75.5
X63.5Y-76.5
X63.5Y-77.5
X63.5Y-78.5
X63.5Y-79.5
X63.5Y-80.5
X63.5Y-81.5
X63.5Y-98.5
X63.5Y-99.5
X63.5Y-100.5
X63.5Y-101.5
X63.5Y-102.5
X63.5Y-103.5
X63.5Y-104.5
X63.5Y-105.5
X64.5Y-74.5
X64.5Y-75.5
X64.5Y-80.5
X64.5Y-81.5
X64.5Y-98.5
X64.5Y-99.5
X64.5Y-104.5
X64.5Y-105.5
X65.5Y-73.5
X65.5Y-74.5
X65.5Y-81.5
X65.5Y-82.5
X65.5Y-97.5
X65.5Y-98.5
X65.5Y-105.5
X65.5Y-106.5
X66.5Y-73.5
X66.5Y-74.5
X66.5Y-81.5
X66.5Y-82.5
X66.5Y-97.5
X66.5Y-98.5
X66.5Y-105.5
X66.5Y-106.5
X67.5Y-73.5
X67.5Y-74.5
X67.5Y-81.5
X67.5Y-82.5
X67.5Y-97.5
X67.5Y-98.5
X67.5Y-105.5
X67.5Y-106.5
X68.5Y-73.5
X68.5Y-74.5
X68.5Y-81.5
X68.5Y-82.5
X68.5Y-97.5
X68.5Y-98.5
X68.5Y-105.5
X68.5Y-106.5
X69.5Y-74.5
X69.5Y-75.5
X69.5Y-80.5
X69.5Y-81.5
X69.5Y-98.5
X69.5Y-99.5
X69.5Y-104.5
X69.5Y-105.5
X70.5Y-74.5
X70.5Y-75.5
X70.5Y-76.5
X70.5Y-77.5
X70.5Y-78.5
X70.5Y-79.5
X70.5Y-80.5
X70.5Y-81.5
X70.5Y-98.5
X70.5Y-99.5
X70.5Y-100.5
X70.5Y-101.5
X70.5Y-102.5
X70.5Y-103.5
X70.5Y-104.5
X70.5Y-105.5
X71.5Y-76.5
X71.5Y-77.5
X71.5Y-78.5
X71.5Y-79.5
X71.5Y-100.5
X71.5Y-101.5
X71.5Y-102.5
X71.5Y-103.5
X183.5Y-76.5
X183.5Y-77.5
X183.5Y-78.5
X183.5Y-79.5
X183.5Y-100.5
X183.5Y-101.5
X183.5Y-102.5
X183.5Y-103.5
X184.5Y-74.5
X184.5Y-75.5
X184.5Y-76.5
X184.5Y-77.5
X184.5Y-78.5
X184.5Y-79.5
X184.5Y-80.5
X184.5Y-81.5
X184.5Y-98.5
X184.5Y-99.5
X184.5Y-100.5
X184.5Y-101.5
X184.5Y-102.5
X184.5Y-103.5
X184.5Y-104.5
X184.5Y-105.5
X185.5Y-74.5
X185.5Y-75.5
X185.5Y-80.5
X185.5Y-81.5
X185.5Y-98.5
X185.5Y-99.5
X185.5Y-104.5
X185.5Y-105.5
X186.5Y-73.5
X186.5Y-74.5
X186.5Y-81.5
X186.5Y-82.5
X186.5Y-97.5
X186.5Y-98.5
X186.5Y-105.5
X186.5Y-106.5
X187.5Y-73.5
X187.5Y-74.5
X187.5Y-81.5
X187.5Y-82.5
X187.5Y-97.5
X187.5Y-98.5
X187.5Y-105.5
X187.5Y-106.5
X188.5Y-73.5
X188.5Y-74.5
X188.5Y-81.5
X188.5Y-82.5
X188.5Y-97.5
X188.5Y-98.5
X188.5Y-105.5
X188.5Y-106.5
X189.5Y-73.5
X189.5Y-74.5
X189.5Y-81.5
X189.5Y-82.5
X189.5Y-97.5
X189.5Y-98.5
X189.5Y-105.5
X189.5Y-106.5
X190.5Y-74.5
X190.5Y-75.5
X190.5Y-80.5
X190.5Y-81.5
X190.5Y-98.5
X190.5Y-99.5
X190.5Y-104.5
X190.5Y-105.5
X191.5Y-74.5
X191.5Y-75.5
X191.5Y-76.5
X191.5Y-77.5
X191.5Y-78.5
X191.5Y-79.5
X191.5Y-80.5
X191.5Y-81.5
X191.5Y-98.5
X191.5Y-99.5
X191.5Y-100.5
X191.5Y-101.5
X191.5Y-102.5
X191.5Y-103.5
X191.5Y-104.5
X191.5Y-105.5
X192.5Y-76.5
X192.5Y-77.5
X192.5Y-78.5
X192.5Y-79.5
X192.5Y-100.5
X192.5Y-101.5
X192.5Y-102.5
X192.5Y-103.5
T3
X85.0Y-37.75
X85.0Y-60.25
X85.0Y-64.75
X85.0Y-87.25
X85.0Y-92.75
X85.0Y-115.25
X85.0Y-119.75
X85.0Y-142.25
X92.5Y-37.75
X92.5Y-60.25
X92.5Y-64.75
X92.5Y-87.25
X92.5Y-92.75
X92.5Y-115.25
X92.5Y-119.75
X92.5Y-142.25
X100.0Y-37.75
X100.0Y-60.25
X100.0Y-64.75
X100.0Y-87.25
X100.0Y-92.75
X100.0Y-115.25
X100.0Y-119.75
X100.0Y-142.25
X107.5Y-37.75
X107.5Y-60.25
X107.5Y-64.75
X107.5Y-87.25
X107.5Y-92.75
X107.5Y-115.25
X107.5Y-119.75
X107.5Y-142.25
X115.0Y-37.75
X115.0Y-60.25
X115.0Y-64.75
X115.0Y-87.25
X115.0Y-92.75
X115.0Y-115.25
X115.0Y-119.75
X115.0Y-142.25
X122.5Y-37.75
X122.5Y-60.25
X122.5Y-64.75
X122.5Y-87.25
X122.5Y-92.75
X122.5Y-115.25
X122.5Y-119.75
X122.5Y-142.25
X130.0Y-37.75
X130.0Y-60.25
X130.0Y-64.75
X130.0Y-87.25
X130.0Y-92.75
X130.0Y-115.25
X130.0Y-119.75
X130.0Y-142.25
X137.5Y-37.75
X137.5Y-60.25
X137.5Y-64.75
X137.5Y-87.25
X137.5Y-92.75
X137.5Y-115.25
X137.5Y-119.75
X137.5Y-142.25
X145.0Y-37.75
X145.0Y-60.25
X145.0Y-64.75
X145.0Y-87.25
X145.0Y-92.75
X145.0Y-115.25
X145.0Y-119.75
X145.0Y-142.25
X152.5Y-37.75
X152.5Y-60.25
X152.5Y-64.75
X152.5Y-87.25
X152.5Y-92.75
X152.5Y-115.25
X152.5Y-119.75
X152.5Y-142.25
X160.0Y-37.75
X160.0Y-60.25
X160.0Y-64.75
X160.0Y-87.25
X160.0Y-92.75
X160.0Y-115.25
X160.0Y-119.75
X160.0Y-142.25
X167.5Y-37.75
X167.5Y-60.25
X167.5Y-64.75
X167.5Y-87.25
X167.5Y-92.75
X167.5Y-115.25
X167.5Y-119.75
X167.5Y-142.25
X178.5Y-53.5
X178.5Y-66.5
X187.0Y-43.84
X187.0Y-64.16
T4
X67.0Y-78.0
X67.0Y-102.0
X188.0Y-78.0
X188.0Y-102.0
M30
