%TF.GenerationSoftware,KiCad,Pcbnew,9.0.0*%
%TF.CreationDate,2025-12-10T15:51:30-08:00*%
%TF.ProjectId,cap_bank,6361705f-6261-46e6-9b2e-6b696361645f,rev?*%
%TF.SameCoordinates,Original*%
%TF.FileFunction,Soldermask,Top*%
%TF.FilePolarity,Negative*%
%FSLAX46Y46*%
G04 Gerber Fmt 4.6, Leading zero omitted, Abs format (unit mm)*
G04 Created by KiCad (PCBNEW 9.0.0) date 2025-12-10 15:51:30*
%MOMM*%
%LPD*%
G01*
G04 APERTURE LIST*
G04 Aperture macros list*
%AMRoundRect*
0 Rectangle with rounded corners*
0 $1 Rounding radius*
0 $2 $3 $4 $5 $6 $7 $8 $9 X,Y pos of 4 corners*
0 Add a 4 corners polygon primitive as box body*
4,1,4,$2,$3,$4,$5,$6,$7,$8,$9,$2,$3,0*
0 Add four circle primitives for the rounded corners*
1,1,$1+$1,$2,$3*
1,1,$1+$1,$4,$5*
1,1,$1+$1,$6,$7*
1,1,$1+$1,$8,$9*
0 Add four rect primitives between the rounded corners*
20,1,$1+$1,$2,$3,$4,$5,0*
20,1,$1+$1,$4,$5,$6,$7,0*
20,1,$1+$1,$6,$7,$8,$9,0*
20,1,$1+$1,$8,$9,$2,$3,0*%
G04 Aperture macros list end*
%ADD10C,4.000000*%
%ADD11C,0.600000*%
%ADD12C,10.600000*%
%ADD13R,13.000000X45.000000*%
%ADD14C,2.400000*%
%ADD15O,2.400000X2.400000*%
%ADD16RoundRect,0.218750X-0.256250X0.218750X-0.256250X-0.218750X0.256250X-0.218750X0.256250X0.218750X0*%
%ADD17RoundRect,0.218750X0.256250X-0.218750X0.256250X0.218750X-0.256250X0.218750X-0.256250X-0.218750X0*%
%TA.AperFunction,Profile*%
%ADD18C,0.050000*%
%TD*%
G04 APERTURE END LIST*
D10*
%TO.C,H6*%
X65000000Y-145000000D03*
%TD*%
%TO.C,H5*%
X190000000Y-145000000D03*
%TD*%
%TO.C,H4*%
X190000000Y-35000000D03*
%TD*%
%TO.C,H3*%
X65000000Y-35000000D03*
%TD*%
D11*
%TO.C,H2*%
X186500000Y-106500000D03*
X187500000Y-106500000D03*
X188500000Y-106500000D03*
X189500000Y-106500000D03*
X184500000Y-105500000D03*
X185500000Y-105500000D03*
X186500000Y-105500000D03*
X187500000Y-105500000D03*
X188500000Y-105500000D03*
X189500000Y-105500000D03*
X190500000Y-105500000D03*
X191500000Y-105500000D03*
X184500000Y-104500000D03*
X185500000Y-104500000D03*
X190500000Y-104500000D03*
X191500000Y-104500000D03*
X183500000Y-103500000D03*
X184500000Y-103500000D03*
X191500000Y-103500000D03*
X192500000Y-103500000D03*
X183500000Y-102500000D03*
X184500000Y-102500000D03*
X191500000Y-102500000D03*
X192500000Y-102500000D03*
D12*
X188000000Y-102000000D03*
D11*
X183500000Y-101500000D03*
X184500000Y-101500000D03*
X191500000Y-101500000D03*
X192500000Y-101500000D03*
X183500000Y-100500000D03*
X184500000Y-100500000D03*
X191500000Y-100500000D03*
X192500000Y-100500000D03*
X184500000Y-99500000D03*
X185500000Y-99500000D03*
X190500000Y-99500000D03*
X191500000Y-99500000D03*
X184500000Y-98500000D03*
X185500000Y-98500000D03*
X186500000Y-98500000D03*
X187500000Y-98500000D03*
X188500000Y-98500000D03*
X189500000Y-98500000D03*
X190500000Y-98500000D03*
X191500000Y-98500000D03*
X186500000Y-97500000D03*
X187500000Y-97500000D03*
X188500000Y-97500000D03*
X189500000Y-97500000D03*
D13*
X188000000Y-90000000D03*
D11*
X186500000Y-82500000D03*
X187500000Y-82500000D03*
X188500000Y-82500000D03*
X189500000Y-82500000D03*
X184500000Y-81500000D03*
X185500000Y-81500000D03*
X186500000Y-81500000D03*
X187500000Y-81500000D03*
X188500000Y-81500000D03*
X189500000Y-81500000D03*
X190500000Y-81500000D03*
X191500000Y-81500000D03*
X184500000Y-80500000D03*
X185500000Y-80500000D03*
X190500000Y-80500000D03*
X191500000Y-80500000D03*
X183500000Y-79500000D03*
X184500000Y-79500000D03*
X191500000Y-79500000D03*
X192500000Y-79500000D03*
X183500000Y-78500000D03*
X184500000Y-78500000D03*
X191500000Y-78500000D03*
X192500000Y-78500000D03*
D12*
X188000000Y-78000000D03*
D11*
X183500000Y-77500000D03*
X184500000Y-77500000D03*
X191500000Y-77500000D03*
X192500000Y-77500000D03*
X183500000Y-76500000D03*
X184500000Y-76500000D03*
X191500000Y-76500000D03*
X192500000Y-76500000D03*
X184500000Y-75500000D03*
X185500000Y-75500000D03*
X190500000Y-75500000D03*
X191500000Y-75500000D03*
X184500000Y-74500000D03*
X185500000Y-74500000D03*
X186500000Y-74500000D03*
X187500000Y-74500000D03*
X188500000Y-74500000D03*
X189500000Y-74500000D03*
X190500000Y-74500000D03*
X191500000Y-74500000D03*
X186500000Y-73500000D03*
X187500000Y-73500000D03*
X188500000Y-73500000D03*
X189500000Y-73500000D03*
%TD*%
%TO.C,H1*%
X65500000Y-106500000D03*
X66500000Y-106500000D03*
X67500000Y-106500000D03*
X68500000Y-106500000D03*
X63500000Y-105500000D03*
X64500000Y-105500000D03*
X65500000Y-105500000D03*
X66500000Y-105500000D03*
X67500000Y-105500000D03*
X68500000Y-105500000D03*
X69500000Y-105500000D03*
X70500000Y-105500000D03*
X63500000Y-104500000D03*
X64500000Y-104500000D03*
X69500000Y-104500000D03*
X70500000Y-104500000D03*
X62500000Y-103500000D03*
X63500000Y-103500000D03*
X70500000Y-103500000D03*
X71500000Y-103500000D03*
X62500000Y-102500000D03*
X63500000Y-102500000D03*
X70500000Y-102500000D03*
X71500000Y-102500000D03*
D12*
X67000000Y-102000000D03*
D11*
X62500000Y-101500000D03*
X63500000Y-101500000D03*
X70500000Y-101500000D03*
X71500000Y-101500000D03*
X62500000Y-100500000D03*
X63500000Y-100500000D03*
X70500000Y-100500000D03*
X71500000Y-100500000D03*
X63500000Y-99500000D03*
X64500000Y-99500000D03*
X69500000Y-99500000D03*
X70500000Y-99500000D03*
X63500000Y-98500000D03*
X64500000Y-98500000D03*
X65500000Y-98500000D03*
X66500000Y-98500000D03*
X67500000Y-98500000D03*
X68500000Y-98500000D03*
X69500000Y-98500000D03*
X70500000Y-98500000D03*
X65500000Y-97500000D03*
X66500000Y-97500000D03*
X67500000Y-97500000D03*
X68500000Y-97500000D03*
D13*
X67000000Y-90000000D03*
D11*
X65500000Y-82500000D03*
X66500000Y-82500000D03*
X67500000Y-82500000D03*
X68500000Y-82500000D03*
X63500000Y-81500000D03*
X64500000Y-81500000D03*
X65500000Y-81500000D03*
X66500000Y-81500000D03*
X67500000Y-81500000D03*
X68500000Y-81500000D03*
X69500000Y-81500000D03*
X70500000Y-81500000D03*
X63500000Y-80500000D03*
X64500000Y-80500000D03*
X69500000Y-80500000D03*
X70500000Y-80500000D03*
X62500000Y-79500000D03*
X63500000Y-79500000D03*
X70500000Y-79500000D03*
X71500000Y-79500000D03*
X62500000Y-78500000D03*
X63500000Y-78500000D03*
X70500000Y-78500000D03*
X71500000Y-78500000D03*
D12*
X67000000Y-78000000D03*
D11*
X62500000Y-77500000D03*
X63500000Y-77500000D03*
X70500000Y-77500000D03*
X71500000Y-77500000D03*
X62500000Y-76500000D03*
X63500000Y-76500000D03*
X70500000Y-76500000D03*
X71500000Y-76500000D03*
X63500000Y-75500000D03*
X64500000Y-75500000D03*
X69500000Y-75500000D03*
X70500000Y-75500000D03*
X63500000Y-74500000D03*
X64500000Y-74500000D03*
X65500000Y-74500000D03*
X66500000Y-74500000D03*
X67500000Y-74500000D03*
X68500000Y-74500000D03*
X69500000Y-74500000D03*
X70500000Y-74500000D03*
X65500000Y-73500000D03*
X66500000Y-73500000D03*
X67500000Y-73500000D03*
X68500000Y-73500000D03*
%TD*%
D14*
%TO.C,GD1*%
X178500000Y-66500000D03*
D15*
X178500000Y-53500000D03*
%TD*%
D14*
%TO.C,C48*%
X167500000Y-60250000D03*
X167500000Y-37750000D03*
%TD*%
%TO.C,C47*%
X160000000Y-60250000D03*
X160000000Y-37750000D03*
%TD*%
%TO.C,C46*%
X152500000Y-60250000D03*
X152500000Y-37750000D03*
%TD*%
%TO.C,C45*%
X145000000Y-60250000D03*
X145000000Y-37750000D03*
%TD*%
%TO.C,C44*%
X137500000Y-60250000D03*
X137500000Y-37750000D03*
%TD*%
%TO.C,C43*%
X130000000Y-60250000D03*
X130000000Y-37750000D03*
%TD*%
%TO.C,C42*%
X122500000Y-60250000D03*
X122500000Y-37750000D03*
%TD*%
%TO.C,C41*%
X115000000Y-60250000D03*
X115000000Y-37750000D03*
%TD*%
%TO.C,C40*%
X107500000Y-60250000D03*
X107500000Y-37750000D03*
%TD*%
%TO.C,C39*%
X100000000Y-60250000D03*
X100000000Y-37750000D03*
%TD*%
%TO.C,C38*%
X92500000Y-60250000D03*
X92500000Y-37750000D03*
%TD*%
%TO.C,C37*%
X85000000Y-60250000D03*
X85000000Y-37750000D03*
%TD*%
%TO.C,C36*%
X167500000Y-87250000D03*
X167500000Y-64750000D03*
%TD*%
%TO.C,C35*%
X160000000Y-87250000D03*
X160000000Y-64750000D03*
%TD*%
%TO.C,C34*%
X152500000Y-87250000D03*
X152500000Y-64750000D03*
%TD*%
%TO.C,C33*%
X145000000Y-87250000D03*
X145000000Y-64750000D03*
%TD*%
%TO.C,C32*%
X137500000Y-87250000D03*
X137500000Y-64750000D03*
%TD*%
%TO.C,C31*%
X130000000Y-87250000D03*
X130000000Y-64750000D03*
%TD*%
%TO.C,C30*%
X122500000Y-87250000D03*
X122500000Y-64750000D03*
%TD*%
%TO.C,C29*%
X115000000Y-87250000D03*
X115000000Y-64750000D03*
%TD*%
%TO.C,C28*%
X107500000Y-87250000D03*
X107500000Y-64750000D03*
%TD*%
%TO.C,C27*%
X100000000Y-87250000D03*
X100000000Y-64750000D03*
%TD*%
%TO.C,C26*%
X92500000Y-87250000D03*
X92500000Y-64750000D03*
%TD*%
%TO.C,C25*%
X85000000Y-87250000D03*
X85000000Y-64750000D03*
%TD*%
%TO.C,C24*%
X167500000Y-115250000D03*
X167500000Y-92750000D03*
%TD*%
%TO.C,C23*%
X160000000Y-115250000D03*
X160000000Y-92750000D03*
%TD*%
%TO.C,C22*%
X152500000Y-115250000D03*
X152500000Y-92750000D03*
%TD*%
%TO.C,C21*%
X145000000Y-115250000D03*
X145000000Y-92750000D03*
%TD*%
%TO.C,C20*%
X137500000Y-115250000D03*
X137500000Y-92750000D03*
%TD*%
%TO.C,C19*%
X130000000Y-92750000D03*
X130000000Y-115250000D03*
%TD*%
%TO.C,C18*%
X122500000Y-115250000D03*
X122500000Y-92750000D03*
%TD*%
%TO.C,C17*%
X115000000Y-115250000D03*
X115000000Y-92750000D03*
%TD*%
%TO.C,C16*%
X107500000Y-115250000D03*
X107500000Y-92750000D03*
%TD*%
%TO.C,C15*%
X100000000Y-115250000D03*
X100000000Y-92750000D03*
%TD*%
%TO.C,C14*%
X92500000Y-115250000D03*
X92500000Y-92750000D03*
%TD*%
%TO.C,C13*%
X85000000Y-115250000D03*
X85000000Y-92750000D03*
%TD*%
%TO.C,C12*%
X167500000Y-142250000D03*
X167500000Y-119750000D03*
%TD*%
%TO.C,C11*%
X160000000Y-142250000D03*
X160000000Y-119750000D03*
%TD*%
%TO.C,C10*%
X152500000Y-142250000D03*
X152500000Y-119750000D03*
%TD*%
%TO.C,C9*%
X145000000Y-142250000D03*
X145000000Y-119750000D03*
%TD*%
%TO.C,C8*%
X137500000Y-142250000D03*
X137500000Y-119750000D03*
%TD*%
%TO.C,C7*%
X130000000Y-142250000D03*
X130000000Y-119750000D03*
%TD*%
%TO.C,C6*%
X122500000Y-142250000D03*
X122500000Y-119750000D03*
%TD*%
%TO.C,C5*%
X115000000Y-142250000D03*
X115000000Y-119750000D03*
%TD*%
%TO.C,C4*%
X107500000Y-142250000D03*
X107500000Y-119750000D03*
%TD*%
%TO.C,C3*%
X100000000Y-142250000D03*
X100000000Y-119750000D03*
%TD*%
%TO.C,C2*%
X92500000Y-142250000D03*
X92500000Y-119750000D03*
%TD*%
%TO.C,C1*%
X85000000Y-142250000D03*
X85000000Y-119750000D03*
%TD*%
%TO.C,R1*%
X187000000Y-43840000D03*
D15*
X187000000Y-64160000D03*
%TD*%
D16*
%TO.C,D1*%
X191000000Y-63212500D03*
X191000000Y-64787500D03*
%TD*%
D17*
%TO.C,D2*%
X193000000Y-64787500D03*
X193000000Y-63212500D03*
%TD*%
D18*
X60000000Y-30000000D02*
X195000000Y-30000000D01*
X195000000Y-150000000D01*
X60000000Y-150000000D01*
X60000000Y-30000000D01*
M02*
